<svg xmlns="http://www.w3.org/2000/svg" viewBox="0 0 256 256" role="img" aria-labelledby="title desc">
  <title id="title">Fridge Freezer Health Card icon</title>
  <desc id="desc">Rounded dark Home Assistant style icon with a fridge freezer, snowflake, temperature health bar, and green status check.</desc>
  <defs>
    <linearGradient id="background" x1="32" y1="20" x2="224" y2="236" gradientUnits="userSpaceOnUse">
      <stop offset="0" stop-color="#102234"/>
      <stop offset="0.58" stop-color="#071421"/>
      <stop offset="1" stop-color="#04101a"/>
    </linearGradient>
    <linearGradient id="appliance" x1="76" y1="37" x2="166" y2="216" gradientUnits="userSpaceOnUse">
      <stop offset="0" stop-color="#f8fbff"/>
      <stop offset="0.48" stop-color="#d7e4f1"/>
      <stop offset="1" stop-color="#91a8bd"/>
    </linearGradient>
    <linearGradient id="doorShade" x1="86" y1="54" x2="163" y2="195" gradientUnits="userSpaceOnUse">
      <stop offset="0" stop-color="#ffffff" stop-opacity="0.18"/>
      <stop offset="1" stop-color="#ffffff" stop-opacity="0"/>
    </linearGradient>
    <linearGradient id="temperatureRange" x1="51" y1="206" x2="205" y2="206" gradientUnits="userSpaceOnUse">
      <stop offset="0" stop-color="#2e8cff"/>
      <stop offset="0.37" stop-color="#3f9fff"/>
      <stop offset="0.51" stop-color="#5ac85a"/>
      <stop offset="0.72" stop-color="#f49a2f"/>
      <stop offset="1" stop-color="#ef332f"/>
    </linearGradient>
    <filter id="softShadow" x="-24" y="-24" width="304" height="304" color-interpolation-filters="sRGB">
      <feDropShadow dx="0" dy="10" stdDeviation="10" flood-color="#000000" flood-opacity="0.34"/>
    </filter>
  </defs>

  <rect width="256" height="256" rx="42" fill="url(#background)"/>
  <rect x="6" y="6" width="244" height="244" rx="37" fill="none" stroke="#223a50" stroke-width="3"/>
  <circle cx="201" cy="58" r="21" fill="#12283a" stroke="#24455d" stroke-width="3"/>
  <circle cx="201" cy="58" r="11" fill="#5fd269"/>
  <path d="M195 58l5 5 10-13" fill="none" stroke="#052314" stroke-width="4" stroke-linecap="round" stroke-linejoin="round"/>

  <g filter="url(#softShadow)">
    <path d="M76 38h78c14 0 25 11 25 25v133c0 12-10 22-22 22H73c-12 0-22-10-22-22V63c0-14 11-25 25-25z" fill="#0a1a28" opacity="0.42"/>
    <path d="M82 31h68c13 0 23 10 23 23v140c0 12-10 22-22 22H81c-12 0-22-10-22-22V54c0-13 10-23 23-23z" fill="url(#appliance)"/>
    <path d="M82 31h68c13 0 23 10 23 23v140c0 12-10 22-22 22H81c-12 0-22-10-22-22V54c0-13 10-23 23-23z" fill="url(#doorShade)"/>
    <path d="M66 105h100" stroke="#597083" stroke-width="5" stroke-linecap="round" opacity="0.78"/>
    <path d="M146 53v34" stroke="#637b8f" stroke-width="6" stroke-linecap="round" opacity="0.88"/>
    <path d="M146 126v52" stroke="#637b8f" stroke-width="6" stroke-linecap="round" opacity="0.88"/>
    <path d="M82 47h53c7 0 13 6 13 13v31H75V54c0-4 3-7 7-7z" fill="#eaf4ff" opacity="0.35"/>
    <path d="M75 118h72v74c0 5-4 9-9 9H84c-5 0-9-4-9-9z" fill="#071421" opacity="0.1"/>
  </g>

  <g stroke="#2f9bff" stroke-width="6" stroke-linecap="round" stroke-linejoin="round">
    <path d="M103 58v39"/>
    <path d="M86 68l34 19"/>
    <path d="M120 68L86 87"/>
    <path d="M94 53l9 7 9-7"/>
    <path d="M94 102l9-7 9 7"/>
    <path d="M78 77l11-4 2-11"/>
    <path d="M128 77l-11-4-2-11"/>
    <path d="M78 78l11 4 2 11"/>
    <path d="M128 78l-11 4-2 11"/>
  </g>

  <g>
    <rect x="43" y="198" width="170" height="18" rx="9" fill="#03101a" opacity="0.72"/>
    <rect x="51" y="203" width="154" height="9" rx="4.5" fill="url(#temperatureRange)"/>
    <path d="M111 195l9-13 9 13z" fill="#f6fbff"/>
    <path d="M120 196v20" stroke="#f6fbff" stroke-width="4" stroke-linecap="round"/>
    <circle cx="120" cy="207" r="7" fill="#5fd269" stroke="#effff1" stroke-width="3"/>
  </g>

  <g opacity="0.96">
    <path d="M189 126c0 26-21 47-47 47s-47-21-47-47" fill="none" stroke="#20394e" stroke-width="10" stroke-linecap="round"/>
    <path d="M189 126c0 13-5 25-13 33" fill="none" stroke="#5fd269" stroke-width="10" stroke-linecap="round"/>
    <path d="M176 159l-12-1 5-11" fill="none" stroke="#5fd269" stroke-width="8" stroke-linecap="round" stroke-linejoin="round"/>
  </g>
</svg>